<svg viewBox="0 0 294 93" version="1.1" xmlns="http://www.w3.org/2000/svg">
  <defs>
    <style>
      .cls-1 {
        fill: #231f20;
      }
    </style>
  </defs>
  
  <g>
    <g id="Layer_1">
      <g>
        <g>
          <g>
            <path d="M100.5,55.4c2.4,2.4,5.3,3.6,8.7,3.6s6.3-1.2,8.7-3.6c2.4-2.4,3.6-5.3,3.6-8.7v-16.4c0-2.3,1.8-4.1,4.1-4.1h0c2.3,0,4.1,1.8,4.1,4.1v16.4c0,5.7-2,10.5-6,14.5s-8.9,6-14.5,6-10.5-2-14.5-6-6-8.9-6-14.5v-16.4c0-2.3,1.8-4.1,4.1-4.1h0c2.3,0,4.1,1.8,4.1,4.1v16.4c0,3.4,1.1,6.3,3.6,8.7Z" class="cls-1"></path>
            <path d="M169.1,50.9h0c2.9,0,4.8,3.1,3.4,5.7-.9,1.7-2.1,3.3-3.6,4.7-4,4-8.9,6-14.5,6s-10.5-2-14.5-6-6-8.9-6-14.5,2-10.5,6-14.5,8.9-6,14.5-6,10.5,2,14.5,6,2.6,3.1,3.6,4.7c1.4,2.6-.4,5.7-3.4,5.7h0c-1.7,0-3.3-.9-4.3-2.4-.5-.8-1.1-1.5-1.8-2.2-2.4-2.4-5.3-3.6-8.7-3.6s-6.3,1.2-8.7,3.6c-2.4,2.4-3.6,5.3-3.6,8.7s1.2,6.3,3.6,8.7c2.4,2.4,5.3,3.6,8.7,3.6s6.3-1.2,8.7-3.6c.7-.7,1.3-1.4,1.8-2.2,1-1.5,2.6-2.4,4.3-2.4Z" class="cls-1"></path>
            <path d="M220,63.2c0,5.7-2,10.5-6,14.5s-5.9,4.6-9.5,5.4c-2.6.6-5.1-1.4-5.1-4h0c0-1.9,1.3-3.5,3.2-4,2.1-.5,3.9-1.6,5.6-3.2,2.4-2.4,3.6-5.3,3.6-8.7h0c-3.5,2.7-7.6,4.1-12.3,4.1s-10.5-2-14.5-6-6-8.9-6-14.5v-16.5c0-2.3,1.8-4.1,4.1-4.1h0c2.3,0,4.1,1.8,4.1,4.1v16.4c0,3.4,1.2,6.3,3.6,8.7,2.4,2.4,5.3,3.6,8.7,3.6s6.3-1.2,8.7-3.6c2.4-2.4,3.6-5.3,3.6-8.7v-16.4c0-2.3,1.8-4.1,4.1-4.1h0c2.3,0,4.1,1.8,4.1,4.1v32.9h0Z" class="cls-1"></path>
            <path d="M265.2,46.7c0,5.7-2,10.5-6,14.5-4,4-8.9,6-14.5,6s-10.5-2-14.5-6-6-8.9-6-14.5,2-10.5,6-14.5,8.9-6,14.5-6,8.8,1.4,12.3,4.1V13.9c0-2.3,1.8-4.1,4.1-4.1h0c2.3,0,4.1,1.8,4.1,4.1v32.8h0ZM244.7,34.4c-3.4,0-6.3,1.2-8.7,3.6-2.4,2.4-3.6,5.3-3.6,8.7s1.2,6.3,3.6,8.7c2.4,2.4,5.3,3.6,8.7,3.6s6.3-1.2,8.7-3.6c2.4-2.4,3.6-5.3,3.6-8.7s-1.2-6.3-3.6-8.7c-2.4-2.4-5.3-3.6-8.7-3.6Z" class="cls-1"></path>
          </g>
          <path d="M80.6,9.9h0c-2.3,0-4.1,1.8-4.1,4.1v49c0,2.3,1.8,4.1,4.1,4.1h0c2.3,0,4.1-1.8,4.1-4.1V14c0-2.3-1.8-4.1-4.1-4.1Z" class="cls-1"></path>
          <g>
            <path d="M62.4,30.1l-6.8-3.9c-1-.6-2.2.2-2.2,1.3v9.8c0,1.6.8,3,2.2,3.8l4.3,2.4v13.2l2.6-1.5c1.5-.8,2.3-2.4,2.3-4.1v-16.9c-.1-1.7-1-3.2-2.4-4.1Z" class="cls-1"></path>
            <path d="M43,14.2l-6.8,4c-1,.6-1,2,0,2.5l8.5,4.9c1.4.8,3,.8,4.4,0l4.3-2.5,11.4,6.6v-3c0-1.7-.9-3.2-2.3-4.1l-14.7-8.5c-1.5-.7-3.3-.7-4.8,0Z" class="cls-1"></path>
            <path d="M32.4,23.5v-4.9l11.4-6.6-2.6-1.5c-1.5-.8-3.3-.8-4.7,0l-14.6,8.5c-1.5.8-2.3,2.4-2.3,4.1v7.9c0,1.1,1.2,1.8,2.2,1.3l8.5-4.9c1.3-.9,2.1-2.3,2.1-3.9Z" class="cls-1"></path>
            <path d="M15.4,47.8l6.8,3.9c1,.6,2.2-.2,2.2-1.3v-9.8c0-1.6-.8-3-2.2-3.8l-4.2-2.4v-13.2l-2.6,1.5c-1.5.8-2.3,2.4-2.3,4.1v16.9c0,1.7.9,3.3,2.3,4.1Z" class="cls-1"></path>
            <path d="M41.6,57.2l-8.5-4.9c-1.4-.8-3-.8-4.4,0l-4.3,2.5-11.4-6.6v3c0,1.7.9,3.2,2.3,4.1l14.7,8.5c1.5.8,3.3.8,4.7,0l4.1-2.4,2.7-1.6c1.1-.6,1.1-2,.1-2.6Z" class="cls-1"></path>
            <path d="M45.4,54.5v4.9l-11.4,6.6,2.6,1.5c1.5.8,3.3.8,4.7,0l14.6-8.5c1.5-.8,2.3-2.4,2.3-4.1v-7.9c0-1.1-1.2-1.8-2.2-1.3l-8.5,4.9c-1.3.8-2.1,2.3-2.1,3.9Z" class="cls-1"></path>
          </g>
        </g>
        <g>
          <path d="M275.1,21.4c-3.2,0-5.8-2.6-5.8-5.8s2.6-5.8,5.8-5.8,5.8,2.6,5.8,5.8-2.6,5.8-5.8,5.8ZM275.1,10.8c-2.7,0-4.8,2.1-4.8,4.8s2.1,4.8,4.8,4.8,4.8-2.1,4.8-4.8-2.2-4.8-4.8-4.8Z" class="cls-1"></path>
          <path d="M277.4,14.6c0,.9-.4,1.5-1.2,1.7l1.4,2h-1.2l-1.3-1.8h-1.3v1.8h-1v-5.6h2c.9,0,1.4.1,1.8.4.6.4.8.9.8,1.5ZM276.1,15.4c.2-.2.3-.4.3-.8s-.1-.7-.3-.8c-.2-.1-.5-.2-1.1-.2h-1.2v1.9h1.2c.6.1.9,0,1.1,0Z" class="cls-1"></path>
        </g>
      </g>
    </g>
  </g>
</svg>